<mxfile host="localhost" modified="2020-05-22T11:12:23.184Z" agent="5.0 (X11; Linux x86_64) AppleWebKit/537.36 (KHTML, like Gecko) Code/1.45.1 Chrome/78.0.3904.130 Electron/7.2.4 Safari/537.36" etag="GoBA-8MGBdc9sxzGgVZd" version="13.0.9">
    <diagram id="6hGFLwfOUW9BJ-s0fimq" name="Page-1">
        <mxGraphModel dx="666" dy="877" grid="1" gridSize="10" guides="1" tooltips="1" connect="1" arrows="1" fold="1" page="1" pageScale="1" pageWidth="827" pageHeight="1169" math="0" shadow="0">
            <root>
                <mxCell id="0"/>
                <mxCell id="1" parent="0"/>
                <mxCell id="5" style="edgeStyle=orthogonalEdgeStyle;rounded=0;orthogonalLoop=1;jettySize=auto;html=1;entryX=1;entryY=0.75;entryDx=0;entryDy=0;" edge="1" parent="1" source="2" target="3">
                    <mxGeometry relative="1" as="geometry">
                        <mxPoint x="210" y="150" as="targetPoint"/>
                        <Array as="points">
                            <mxPoint x="240" y="165"/>
                            <mxPoint x="240" y="165"/>
                        </Array>
                    </mxGeometry>
                </mxCell>
                <mxCell id="2" value="Server" style="rounded=1;whiteSpace=wrap;html=1;" parent="1" vertex="1">
                    <mxGeometry x="280" y="120" width="120" height="60" as="geometry"/>
                </mxCell>
                <mxCell id="4" style="edgeStyle=orthogonalEdgeStyle;rounded=0;orthogonalLoop=1;jettySize=auto;html=1;" edge="1" parent="1" source="3">
                    <mxGeometry relative="1" as="geometry">
                        <mxPoint x="280" y="130" as="targetPoint"/>
                        <Array as="points">
                            <mxPoint x="280" y="130"/>
                        </Array>
                    </mxGeometry>
                </mxCell>
                <mxCell id="3" value="Client" style="rounded=1;whiteSpace=wrap;html=1;" vertex="1" parent="1">
                    <mxGeometry x="80" y="120" width="120" height="60" as="geometry"/>
                </mxCell>
                <mxCell id="9" value="Request" style="text;html=1;align=center;verticalAlign=middle;resizable=0;points=[];autosize=1;" vertex="1" parent="1">
                    <mxGeometry x="205" y="100" width="60" height="20" as="geometry"/>
                </mxCell>
                <mxCell id="10" value="Get Home Page" style="text;html=1;strokeColor=none;fillColor=none;align=center;verticalAlign=middle;whiteSpace=wrap;rounded=0;" vertex="1" parent="1">
                    <mxGeometry x="105" y="60" width="70" height="40" as="geometry"/>
                </mxCell>
                <mxCell id="11" style="edgeStyle=orthogonalEdgeStyle;rounded=0;orthogonalLoop=1;jettySize=auto;html=1;entryX=1;entryY=0.75;entryDx=0;entryDy=0;" edge="1" source="12" target="14" parent="1">
                    <mxGeometry relative="1" as="geometry">
                        <mxPoint x="205" y="490" as="targetPoint"/>
                        <Array as="points">
                            <mxPoint x="235" y="505"/>
                            <mxPoint x="235" y="505"/>
                        </Array>
                    </mxGeometry>
                </mxCell>
                <mxCell id="12" value="Server" style="rounded=1;whiteSpace=wrap;html=1;" vertex="1" parent="1">
                    <mxGeometry x="275" y="460" width="120" height="60" as="geometry"/>
                </mxCell>
                <mxCell id="13" style="edgeStyle=orthogonalEdgeStyle;rounded=0;orthogonalLoop=1;jettySize=auto;html=1;" edge="1" source="14" parent="1">
                    <mxGeometry relative="1" as="geometry">
                        <mxPoint x="275" y="470" as="targetPoint"/>
                        <Array as="points">
                            <mxPoint x="275" y="470"/>
                        </Array>
                    </mxGeometry>
                </mxCell>
                <mxCell id="14" value="Client" style="rounded=1;whiteSpace=wrap;html=1;" vertex="1" parent="1">
                    <mxGeometry x="75" y="460" width="120" height="60" as="geometry"/>
                </mxCell>
                <mxCell id="15" value="Response" style="text;html=1;align=center;verticalAlign=middle;resizable=0;points=[];autosize=1;" vertex="1" parent="1">
                    <mxGeometry x="200" y="510" width="70" height="20" as="geometry"/>
                </mxCell>
                <mxCell id="16" value="Request" style="text;html=1;align=center;verticalAlign=middle;resizable=0;points=[];autosize=1;" vertex="1" parent="1">
                    <mxGeometry x="205" y="440" width="60" height="20" as="geometry"/>
                </mxCell>
                <mxCell id="17" value="Get JavaScript Bundle" style="text;html=1;strokeColor=none;fillColor=none;align=center;verticalAlign=middle;whiteSpace=wrap;rounded=0;" vertex="1" parent="1">
                    <mxGeometry x="100" y="400" width="70" height="40" as="geometry"/>
                </mxCell>
                <mxCell id="20" value="Response" style="text;html=1;align=center;verticalAlign=middle;resizable=0;points=[];autosize=1;" vertex="1" parent="1">
                    <mxGeometry x="205" y="170" width="70" height="20" as="geometry"/>
                </mxCell>
                <mxCell id="21" style="edgeStyle=orthogonalEdgeStyle;rounded=0;orthogonalLoop=1;jettySize=auto;html=1;entryX=1;entryY=0.75;entryDx=0;entryDy=0;" edge="1" source="22" target="24" parent="1">
                    <mxGeometry relative="1" as="geometry">
                        <mxPoint x="205" y="310" as="targetPoint"/>
                        <Array as="points">
                            <mxPoint x="235" y="325"/>
                            <mxPoint x="235" y="325"/>
                        </Array>
                    </mxGeometry>
                </mxCell>
                <mxCell id="22" value="Server" style="rounded=1;whiteSpace=wrap;html=1;" vertex="1" parent="1">
                    <mxGeometry x="275" y="280" width="120" height="60" as="geometry"/>
                </mxCell>
                <mxCell id="23" style="edgeStyle=orthogonalEdgeStyle;rounded=0;orthogonalLoop=1;jettySize=auto;html=1;" edge="1" source="24" parent="1">
                    <mxGeometry relative="1" as="geometry">
                        <mxPoint x="275" y="290" as="targetPoint"/>
                        <Array as="points">
                            <mxPoint x="275" y="290"/>
                        </Array>
                    </mxGeometry>
                </mxCell>
                <mxCell id="24" value="Client" style="rounded=1;whiteSpace=wrap;html=1;" vertex="1" parent="1">
                    <mxGeometry x="75" y="280" width="120" height="60" as="geometry"/>
                </mxCell>
                <mxCell id="25" value="Request" style="text;html=1;align=center;verticalAlign=middle;resizable=0;points=[];autosize=1;" vertex="1" parent="1">
                    <mxGeometry x="200" y="260" width="60" height="20" as="geometry"/>
                </mxCell>
                <mxCell id="26" value="Get Login HTML" style="text;html=1;strokeColor=none;fillColor=none;align=center;verticalAlign=middle;whiteSpace=wrap;rounded=0;" vertex="1" parent="1">
                    <mxGeometry x="100" y="220" width="70" height="40" as="geometry"/>
                </mxCell>
                <mxCell id="27" value="Response" style="text;html=1;align=center;verticalAlign=middle;resizable=0;points=[];autosize=1;" vertex="1" parent="1">
                    <mxGeometry x="200" y="330" width="70" height="20" as="geometry"/>
                </mxCell>
            </root>
        </mxGraphModel>
    </diagram>
</mxfile>